<svg width="60" height="60" xmlns="http://www.w3.org/2000/svg">
 <!-- Created with Method Draw - http://github.com/duopixel/Method-Draw/ -->

 <g>
  <title>background</title>
  <rect fill="none" id="canvas_background" height="62" width="62" y="-1" x="-1"/>
  <g display="none" overflow="visible" y="0" x="0" height="100%" width="100%" id="canvasGrid">
   <rect fill="url(#gridpattern)" stroke-width="0" y="0" x="0" height="100%" width="100%"/>
  </g>
 </g>
 <g>
  <title>Layer 1</title>
  <!-- Created with Method Draw - http://github.com/duopixel/Method-Draw/ -->
  <defs transform="translate(-27.33749771118164,1.8224998712539673) translate(-0.20249998569488525,0) translate(-0.20249998569488525,0) translate(-0.20249998569488525,0) translate(-0.20249998569488525,0) translate(-0.20249998569488525,0) translate(-0.20249998569488525,0) translate(-0.20249998569488525,0) translate(-0.20249998569488525,0) translate(-0.20249998569488525,0) translate(-0.20249998569488525,0) translate(-0.20249998569488525,0) translate(-0.20249998569488525,0) translate(-0.20249998569488525,0) translate(-0.20249998569488525,0) translate(-0.20249998569488525,0) translate(-0.20249998569488525,0) translate(-0.20249998569488525,0) translate(-0.20249998569488525,0) translate(-0.20249998569488525,0) translate(-0.20249998569488525,0) translate(-0.20249998569488525,0) translate(-0.20249998569488525,0) translate(-0.20249998569488525,0) translate(-0.20249998569488525,0) translate(-0.20249998569488525,0) translate(-0.20249998569488525,0) translate(-0.20249998569488525,0) translate(-0.20249998569488525,0) translate(-0.20249998569488525,0) translate(-0.20249998569488525,0) translate(-0.20249998569488525,0) translate(-0.20249998569488525,0) translate(-0.20249998569488525,0) translate(-0.20249998569488525,0) translate(-0.20249998569488525,0) translate(-0.20249998569488525,0) translate(-0.20249998569488525,0) translate(-0.20249998569488525,0) translate(-0.20249998569488525,0) translate(-0.20249998569488525,0) translate(-0.20249998569488525,0) translate(-0.20249998569488525,0) translate(-0.20249998569488525,0) translate(-0.20249998569488525,0) translate(-0.20249998569488525,0) translate(-0.20249998569488525,0) translate(-0.20249998569488525,0) translate(-0.20249998569488525,0) translate(-0.20249998569488525,0) translate(-0.20249998569488525,0) translate(-0.20249998569488525,0) translate(-0.20249998569488525,0) translate(-0.20249998569488525,0) translate(-0.20249998569488525,0) translate(-0.20249998569488525,0) translate(-0.20249998569488525,0) translate(-0.20249998569488525,0) translate(-0.20249998569488525,0) translate(-0.20249998569488525,0) translate(-0.20249998569488525,0) translate(-0.20249998569488525,0) translate(-0.20249998569488525,0) translate(-0.20249998569488525,0) translate(-0.20249998569488525,0) translate(-0.20249998569488525,0) translate(-0.20249998569488525,0) translate(-0.20249998569488525,0) translate(-0.20249998569488525,0) translate(-0.20249998569488525,0) translate(-0.20249998569488525,0) translate(-0.20249998569488525,0) translate(-0.20249998569488525,0) translate(-0.20249998569488525,0) translate(-0.20249998569488525,0) translate(-0.20249998569488525,0) translate(-0.20249998569488525,0) translate(-0.20249998569488525,0) translate(-0.20249998569488525,0) translate(-0.20249998569488525,0) translate(-0.20249998569488525,0) translate(-0.20249998569488525,0) translate(-0.20249998569488525,0) translate(-0.20249998569488525,0) translate(-0.20249998569488525,0) translate(-0.20249998569488525,0) translate(-0.20249998569488525,0) translate(-0.20249998569488525,0) translate(-0.20249998569488525,0) translate(-0.20249998569488525,0) translate(33.412498474121094,-7.289999485015869) translate(12.959999084472656,26.12249755859375) translate(9.719999313354492,-32.1974983215332) translate(12.959999084472656,13.972498893737793) translate(-10.732499122619629,1.0124999284744263) translate(-0.4049999713897705,0) translate(26.729997634887695,0.4049999713897705) translate(9.112499237060547,-0.809999942779541) translate(28.72499656677246,0) translate(0,10.49999713897705) ">
   <style type="text/css"/>
  </defs>
  <defs>
   <style type="text/css"/>
  </defs>
  <ellipse stroke="null" ry="18.999615" rx="18.999615" id="svg_25" cy="18.999614" cx="18.999614" fill-opacity="null" stroke-opacity="null" stroke-width="null" fill="#f98bc2"/>
  <defs>
   <style type="text/css"/>
  </defs>
  <path stroke="null" id="svg_30" fill="#d4237a" d="m20.142578,27.31237l-12.856964,0c-4.028515,0 -7.285613,-3.243344 -7.285613,-7.254848l0,-12.802673c0,-4.011505 3.257098,-7.254849 7.285613,-7.254849l12.856964,0c4.028516,0 7.285614,3.243344 7.285614,7.254849l0,12.802673c0,4.011504 -3.257098,7.254848 -7.285614,7.254848zm-12.856964,-23.044812c-1.628549,0 -2.999958,1.365619 -2.999958,2.987291l0,12.802673c0,1.621672 1.371409,2.98729 2.999958,2.98729l12.856964,0c1.628549,0 2.999959,-1.365618 2.999959,-2.98729l0,-12.802673c0,-1.621672 -1.37141,-2.987291 -2.999959,-2.987291l-12.856964,0zm45.427941,23.044812l-12.856965,0c-4.028515,0 -7.285613,-3.243344 -7.285613,-7.254848l0,-12.802673c0,-4.011505 3.257098,-7.254849 7.285613,-7.254849l12.856965,0c4.028515,0 7.285613,3.243344 7.285613,7.254849l0,12.802673c0,4.011504 -3.257098,7.254848 -7.285613,7.254848zm-12.856965,-23.044812c-1.628548,0 -2.999958,1.365619 -2.999958,2.987291l0,12.802673c0,1.621672 1.37141,2.98729 2.999958,2.98729l12.856965,0c1.628549,0 2.999958,-1.365618 2.999958,-2.98729l0,-12.802673c0,-1.621672 -1.371409,-2.987291 -2.999958,-2.987291l-12.856965,0zm-19.714012,55.478251l-12.856964,0c-4.028515,0 -7.285613,-3.243344 -7.285613,-7.254848l0,-12.802673c0,-4.011505 3.257098,-7.254849 7.285613,-7.254849l12.856964,0c4.028516,0 7.285614,3.243344 7.285614,7.254849l0,12.802673c0,4.011504 -3.257098,7.254848 -7.285614,7.254848zm-12.856964,-23.044812c-1.628549,0 -2.999958,1.365619 -2.999958,2.987291l0,12.802673c0,1.621672 1.371409,2.98729 2.999958,2.98729l12.856964,0c1.628549,0 2.999959,-1.365618 2.999959,-2.98729l0,-12.802673c0,-1.621672 -1.37141,-2.987291 -2.999959,-2.987291l-12.856964,0z"/>
  <path stroke="null" id="svg_31" fill="#D098FF" d="m46.285073,59.745809c-7.542752,0 -13.714095,-6.145283 -13.714095,-13.656185s6.171343,-13.656185 13.714095,-13.656185s13.714095,6.145283 13.714095,13.656185s-6.171343,13.656185 -13.714095,13.656185zm0,-23.044812c-5.228499,0 -9.428441,4.182207 -9.428441,9.388627s4.199942,9.388627 9.428441,9.388627s9.428441,-4.182207 9.428441,-9.388627s-4.199942,-9.388627 -9.428441,-9.388627z"/>
 </g>
</svg>