<svg width="60" height="60" xmlns="http://www.w3.org/2000/svg">
 <!-- Created with Method Draw - http://github.com/duopixel/Method-Draw/ -->

 <g>
  <title>background</title>
  <rect fill="none" id="canvas_background" height="62" width="62" y="-1" x="-1"/>
  <g display="none" overflow="visible" y="0" x="0" height="100%" width="100%" id="canvasGrid">
   <rect fill="url(#gridpattern)" stroke-width="0" y="0" x="0" height="100%" width="100%"/>
  </g>
 </g>
 <g>
  <title>Layer 1</title>
  <!-- Created with Method Draw - http://github.com/duopixel/Method-Draw/ -->
  <defs transform="translate(-27.33749771118164,1.8224998712539673) translate(-0.20249998569488525,0) translate(-0.20249998569488525,0) translate(-0.20249998569488525,0) translate(-0.20249998569488525,0) translate(-0.20249998569488525,0) translate(-0.20249998569488525,0) translate(-0.20249998569488525,0) translate(-0.20249998569488525,0) translate(-0.20249998569488525,0) translate(-0.20249998569488525,0) translate(-0.20249998569488525,0) translate(-0.20249998569488525,0) translate(-0.20249998569488525,0) translate(-0.20249998569488525,0) translate(-0.20249998569488525,0) translate(-0.20249998569488525,0) translate(-0.20249998569488525,0) translate(-0.20249998569488525,0) translate(-0.20249998569488525,0) translate(-0.20249998569488525,0) translate(-0.20249998569488525,0) translate(-0.20249998569488525,0) translate(-0.20249998569488525,0) translate(-0.20249998569488525,0) translate(-0.20249998569488525,0) translate(-0.20249998569488525,0) translate(-0.20249998569488525,0) translate(-0.20249998569488525,0) translate(-0.20249998569488525,0) translate(-0.20249998569488525,0) translate(-0.20249998569488525,0) translate(-0.20249998569488525,0) translate(-0.20249998569488525,0) translate(-0.20249998569488525,0) translate(-0.20249998569488525,0) translate(-0.20249998569488525,0) translate(-0.20249998569488525,0) translate(-0.20249998569488525,0) translate(-0.20249998569488525,0) translate(-0.20249998569488525,0) translate(-0.20249998569488525,0) translate(-0.20249998569488525,0) translate(-0.20249998569488525,0) translate(-0.20249998569488525,0) translate(-0.20249998569488525,0) translate(-0.20249998569488525,0) translate(-0.20249998569488525,0) translate(-0.20249998569488525,0) translate(-0.20249998569488525,0) translate(-0.20249998569488525,0) translate(-0.20249998569488525,0) translate(-0.20249998569488525,0) translate(-0.20249998569488525,0) translate(-0.20249998569488525,0) translate(-0.20249998569488525,0) translate(-0.20249998569488525,0) translate(-0.20249998569488525,0) translate(-0.20249998569488525,0) translate(-0.20249998569488525,0) translate(-0.20249998569488525,0) translate(-0.20249998569488525,0) translate(-0.20249998569488525,0) translate(-0.20249998569488525,0) translate(-0.20249998569488525,0) translate(-0.20249998569488525,0) translate(-0.20249998569488525,0) translate(-0.20249998569488525,0) translate(-0.20249998569488525,0) translate(-0.20249998569488525,0) translate(-0.20249998569488525,0) translate(-0.20249998569488525,0) translate(-0.20249998569488525,0) translate(-0.20249998569488525,0) translate(-0.20249998569488525,0) translate(-0.20249998569488525,0) translate(-0.20249998569488525,0) translate(-0.20249998569488525,0) translate(-0.20249998569488525,0) translate(-0.20249998569488525,0) translate(-0.20249998569488525,0) translate(-0.20249998569488525,0) translate(-0.20249998569488525,0) translate(-0.20249998569488525,0) translate(-0.20249998569488525,0) translate(-0.20249998569488525,0) translate(-0.20249998569488525,0) translate(-0.20249998569488525,0) translate(-0.20249998569488525,0) translate(-0.20249998569488525,0) translate(33.412498474121094,-7.289999485015869) translate(12.959999084472656,26.12249755859375) translate(9.719999313354492,-32.1974983215332) translate(12.959999084472656,13.972498893737793) translate(-10.732499122619629,1.0124999284744263) translate(-0.4049999713897705,0) translate(26.729997634887695,0.4049999713897705) translate(9.112499237060547,-0.809999942779541) translate(28.72499656677246,0) translate(0,10.49999713897705) ">
   <style type="text/css"/>
  </defs>
  <defs>
   <style type="text/css"/>
  </defs>
  <defs>
   <style type="text/css"/>
  </defs>
  <defs>
   <style type="text/css"/>
  </defs>
  <defs>
   <style type="text/css"/>
  </defs>
  <g stroke="null" id="svg_43">
   <path id="svg_41" fill="#707070" d="m20.189842,4.790551c1.284133,0 2.375276,1.10033 2.375276,2.395276l0,13.174018c0,1.294946 -1.091142,2.395276 -2.375276,2.395276l-13.064016,0c-1.284133,0 -2.375276,-1.10033 -2.375276,-2.395276l0,-13.174018c0,-1.294946 1.091142,-2.395276 2.375276,-2.395276l13.064016,0m0,-4.790552l-13.064016,0c-3.919205,0 -7.125827,3.233623 -7.125827,7.185828l0,13.174018c0,3.952205 3.206622,7.185828 7.125827,7.185828l13.064016,0c3.919205,0 7.125827,-3.233623 7.125827,-7.185828l0,-13.174018c0,-3.952205 -3.206622,-7.185828 -7.125827,-7.185828zm0,37.126777c1.284133,0 2.375276,1.10033 2.375276,2.395276l0,13.174018c0,1.294946 -1.091142,2.395276 -2.375276,2.395276l-13.064016,0c-1.284133,0 -2.375276,-1.10033 -2.375276,-2.395276l0,-13.174018c0,-1.294946 1.091142,-2.395276 2.375276,-2.395276l13.064016,0m0,-4.790552l-13.064016,0c-3.919205,0 -7.125827,3.233623 -7.125827,7.185828l0,13.174018c0,3.952205 3.206622,7.185828 7.125827,7.185828l13.064016,0c3.919205,0 7.125827,-3.233623 7.125827,-7.185828l0,-13.174018c0,-3.952205 -3.206622,-7.185828 -7.125827,-7.185828zm32.066221,4.790552c1.284133,0 2.375276,1.10033 2.375276,2.395276l0,13.174018c0,1.294946 -1.091142,2.395276 -2.375276,2.395276l-13.064016,0c-1.284133,0 -2.375276,-1.10033 -2.375276,-2.395276l0,-13.174018c0,-1.294946 1.091142,-2.395276 2.375276,-2.395276l13.064016,0m0,-4.790552l-13.064016,0c-3.919205,0 -7.125827,3.233623 -7.125827,7.185828l0,13.174018c0,3.952205 3.206622,7.185828 7.125827,7.185828l13.064016,0c3.919205,0 7.125827,-3.233623 7.125827,-7.185828l0,-13.174018c0,-3.952205 -3.206622,-7.185828 -7.125827,-7.185828z"/>
   <path id="svg_42" fill="#707070" d="m45.724056,4.790551c4.913852,0 8.907284,4.027058 8.907284,8.982285s-3.993432,8.982285 -8.907284,8.982285s-8.907284,-4.027058 -8.907284,-8.982285s3.993432,-8.982285 8.907284,-8.982285m0,-4.790552c-7.5415,0 -13.657835,6.167836 -13.657835,13.772837s6.116335,13.772837 13.657835,13.772837s13.657835,-6.167836 13.657835,-13.772837s-6.116335,-13.772837 -13.657835,-13.772837z"/>
  </g>
 </g>
</svg>