<svg width="60" height="60" xmlns="http://www.w3.org/2000/svg">
 <!-- Created with Method Draw - http://github.com/duopixel/Method-Draw/ -->

 <g>
  <title>background</title>
  <rect fill="none" id="canvas_background" height="62" width="62" y="-1" x="-1"/>
  <g display="none" overflow="visible" y="0" x="0" height="100%" width="100%" id="canvasGrid">
   <rect fill="url(#gridpattern)" stroke-width="0" y="0" x="0" height="100%" width="100%"/>
  </g>
 </g>
 <g>
  <title>Layer 1</title>
  <!-- Created with Method Draw - http://github.com/duopixel/Method-Draw/ -->
  <defs transform="translate(-27.33749771118164,1.8224998712539673) translate(-0.20249998569488525,0) translate(-0.20249998569488525,0) translate(-0.20249998569488525,0) translate(-0.20249998569488525,0) translate(-0.20249998569488525,0) translate(-0.20249998569488525,0) translate(-0.20249998569488525,0) translate(-0.20249998569488525,0) translate(-0.20249998569488525,0) translate(-0.20249998569488525,0) translate(-0.20249998569488525,0) translate(-0.20249998569488525,0) translate(-0.20249998569488525,0) translate(-0.20249998569488525,0) translate(-0.20249998569488525,0) translate(-0.20249998569488525,0) translate(-0.20249998569488525,0) translate(-0.20249998569488525,0) translate(-0.20249998569488525,0) translate(-0.20249998569488525,0) translate(-0.20249998569488525,0) translate(-0.20249998569488525,0) translate(-0.20249998569488525,0) translate(-0.20249998569488525,0) translate(-0.20249998569488525,0) translate(-0.20249998569488525,0) translate(-0.20249998569488525,0) translate(-0.20249998569488525,0) translate(-0.20249998569488525,0) translate(-0.20249998569488525,0) translate(-0.20249998569488525,0) translate(-0.20249998569488525,0) translate(-0.20249998569488525,0) translate(-0.20249998569488525,0) translate(-0.20249998569488525,0) translate(-0.20249998569488525,0) translate(-0.20249998569488525,0) translate(-0.20249998569488525,0) translate(-0.20249998569488525,0) translate(-0.20249998569488525,0) translate(-0.20249998569488525,0) translate(-0.20249998569488525,0) translate(-0.20249998569488525,0) translate(-0.20249998569488525,0) translate(-0.20249998569488525,0) translate(-0.20249998569488525,0) translate(-0.20249998569488525,0) translate(-0.20249998569488525,0) translate(-0.20249998569488525,0) translate(-0.20249998569488525,0) translate(-0.20249998569488525,0) translate(-0.20249998569488525,0) translate(-0.20249998569488525,0) translate(-0.20249998569488525,0) translate(-0.20249998569488525,0) translate(-0.20249998569488525,0) translate(-0.20249998569488525,0) translate(-0.20249998569488525,0) translate(-0.20249998569488525,0) translate(-0.20249998569488525,0) translate(-0.20249998569488525,0) translate(-0.20249998569488525,0) translate(-0.20249998569488525,0) translate(-0.20249998569488525,0) translate(-0.20249998569488525,0) translate(-0.20249998569488525,0) translate(-0.20249998569488525,0) translate(-0.20249998569488525,0) translate(-0.20249998569488525,0) translate(-0.20249998569488525,0) translate(-0.20249998569488525,0) translate(-0.20249998569488525,0) translate(-0.20249998569488525,0) translate(-0.20249998569488525,0) translate(-0.20249998569488525,0) translate(-0.20249998569488525,0) translate(-0.20249998569488525,0) translate(-0.20249998569488525,0) translate(-0.20249998569488525,0) translate(-0.20249998569488525,0) translate(-0.20249998569488525,0) translate(-0.20249998569488525,0) translate(-0.20249998569488525,0) translate(-0.20249998569488525,0) translate(-0.20249998569488525,0) translate(-0.20249998569488525,0) translate(-0.20249998569488525,0) translate(-0.20249998569488525,0) translate(-0.20249998569488525,0) translate(33.412498474121094,-7.289999485015869) translate(12.959999084472656,26.12249755859375) translate(9.719999313354492,-32.1974983215332) translate(12.959999084472656,13.972498893737793) translate(-10.732499122619629,1.0124999284744263) translate(-0.4049999713897705,0) translate(26.729997634887695,0.4049999713897705) translate(9.112499237060547,-0.809999942779541) translate(28.72499656677246,0) translate(0,10.49999713897705) ">
   <style type="text/css"/>
  </defs>
  <defs>
   <style type="text/css"/>
  </defs>
  <defs>
   <style type="text/css"/>
  </defs>
  <defs>
   <style type="text/css"/>
  </defs>
  <defs>
   <style type="text/css"/>
  </defs>
  <defs>
   <style type="text/css"/>
  </defs>
  <defs>
   <style type="text/css"/>
  </defs>
  <g stroke="null" id="svg_74">
   <path stroke="null" id="svg_73" fill="#707070" d="m59.379243,30.798125a2.007782,2.004385 0 0 1 -2.839472,0c-0.002945,-0.003007 -0.005421,-0.006681 -0.008366,-0.009354l-0.000468,0.000468l-25.602228,-25.558576a1.338521,1.336256 0 0 0 -1.892937,0l-25.602228,25.558576a2.007782,2.004385 0 1 1 -2.839405,-2.834601l27.021931,-26.97621a3.346303,3.340641 0 0 1 4.732341,0l27.021931,26.97621l-0.000402,0.000401c0.003012,0.003007 0.006291,0.005412 0.009303,0.008418a2.007782,2.004385 0 0 1 0,2.834667zm-4.83514,-14.790554a2.007782,2.004385 0 0 1 -2.007782,-2.004385l0,-6.681282l-6.692606,0a2.007782,2.004385 0 0 1 0,-4.008769l8.700387,0a2.007782,2.004385 0 0 1 2.007782,2.004385l0,8.685667a2.007782,2.004385 0 0 1 -2.007782,2.004385zm-46.714388,15.851341a2.007782,2.004385 0 0 1 2.00738,1.987681l0.000402,0l0,20.511536a1.338521,1.336256 0 0 0 1.338521,1.336256l9.16887,0l0,-15.701013a3.346303,3.340641 0 0 1 3.346303,-3.340641l12.582099,0a3.346303,3.340641 0 0 1 3.346303,3.340641l0,15.701013l9.16887,0a1.338521,1.336256 0 0 0 1.338521,-1.336256l0,-20.22424a2.007782,2.004385 0 1 1 3.992541,-0.304266c0,0.005612 0,0.011091 -0.000402,0.016703l0.023424,0l0,22.516187a3.346303,3.340641 0 0 1 -3.346303,3.340641l-15.192215,0l0,-17.733191a1.338521,1.336256 0 0 0 -1.338521,-1.336256l-8.566535,0a1.338521,1.336256 0 0 0 -1.338521,1.336256l0,17.733191l-15.192215,0a3.346303,3.340641 0 0 1 -3.346303,-3.340641l0,-22.51592l0.000402,0a2.007782,2.004385 0 0 1 2.00738,-1.987681z"/>
  </g>
 </g>
</svg>