<svg width="60" height="60" xmlns="http://www.w3.org/2000/svg">
 <!-- Created with Method Draw - http://github.com/duopixel/Method-Draw/ -->

 <g>
  <title>background</title>
  <rect fill="none" id="canvas_background" height="62" width="62" y="-1" x="-1"/>
  <g display="none" overflow="visible" y="0" x="0" height="100%" width="100%" id="canvasGrid">
   <rect fill="url(#gridpattern)" stroke-width="0" y="0" x="0" height="100%" width="100%"/>
  </g>
 </g>
 <g>
  <title>Layer 1</title>
  <!-- Created with Method Draw - http://github.com/duopixel/Method-Draw/ -->
  <defs transform="translate(-27.33749771118164,1.8224998712539673) translate(-0.20249998569488525,0) translate(-0.20249998569488525,0) translate(-0.20249998569488525,0) translate(-0.20249998569488525,0) translate(-0.20249998569488525,0) translate(-0.20249998569488525,0) translate(-0.20249998569488525,0) translate(-0.20249998569488525,0) translate(-0.20249998569488525,0) translate(-0.20249998569488525,0) translate(-0.20249998569488525,0) translate(-0.20249998569488525,0) translate(-0.20249998569488525,0) translate(-0.20249998569488525,0) translate(-0.20249998569488525,0) translate(-0.20249998569488525,0) translate(-0.20249998569488525,0) translate(-0.20249998569488525,0) translate(-0.20249998569488525,0) translate(-0.20249998569488525,0) translate(-0.20249998569488525,0) translate(-0.20249998569488525,0) translate(-0.20249998569488525,0) translate(-0.20249998569488525,0) translate(-0.20249998569488525,0) translate(-0.20249998569488525,0) translate(-0.20249998569488525,0) translate(-0.20249998569488525,0) translate(-0.20249998569488525,0) translate(-0.20249998569488525,0) translate(-0.20249998569488525,0) translate(-0.20249998569488525,0) translate(-0.20249998569488525,0) translate(-0.20249998569488525,0) translate(-0.20249998569488525,0) translate(-0.20249998569488525,0) translate(-0.20249998569488525,0) translate(-0.20249998569488525,0) translate(-0.20249998569488525,0) translate(-0.20249998569488525,0) translate(-0.20249998569488525,0) translate(-0.20249998569488525,0) translate(-0.20249998569488525,0) translate(-0.20249998569488525,0) translate(-0.20249998569488525,0) translate(-0.20249998569488525,0) translate(-0.20249998569488525,0) translate(-0.20249998569488525,0) translate(-0.20249998569488525,0) translate(-0.20249998569488525,0) translate(-0.20249998569488525,0) translate(-0.20249998569488525,0) translate(-0.20249998569488525,0) translate(-0.20249998569488525,0) translate(-0.20249998569488525,0) translate(-0.20249998569488525,0) translate(-0.20249998569488525,0) translate(-0.20249998569488525,0) translate(-0.20249998569488525,0) translate(-0.20249998569488525,0) translate(-0.20249998569488525,0) translate(-0.20249998569488525,0) translate(-0.20249998569488525,0) translate(-0.20249998569488525,0) translate(-0.20249998569488525,0) translate(-0.20249998569488525,0) translate(-0.20249998569488525,0) translate(-0.20249998569488525,0) translate(-0.20249998569488525,0) translate(-0.20249998569488525,0) translate(-0.20249998569488525,0) translate(-0.20249998569488525,0) translate(-0.20249998569488525,0) translate(-0.20249998569488525,0) translate(-0.20249998569488525,0) translate(-0.20249998569488525,0) translate(-0.20249998569488525,0) translate(-0.20249998569488525,0) translate(-0.20249998569488525,0) translate(-0.20249998569488525,0) translate(-0.20249998569488525,0) translate(-0.20249998569488525,0) translate(-0.20249998569488525,0) translate(-0.20249998569488525,0) translate(-0.20249998569488525,0) translate(-0.20249998569488525,0) translate(-0.20249998569488525,0) translate(-0.20249998569488525,0) translate(-0.20249998569488525,0) translate(33.412498474121094,-7.289999485015869) translate(12.959999084472656,26.12249755859375) translate(9.719999313354492,-32.1974983215332) translate(12.959999084472656,13.972498893737793) translate(-10.732499122619629,1.0124999284744263) translate(-0.4049999713897705,0) translate(26.729997634887695,0.4049999713897705) translate(9.112499237060547,-0.809999942779541) translate(28.72499656677246,0) translate(0,10.49999713897705) ">
   <style type="text/css"/>
  </defs>
  <defs>
   <style type="text/css"/>
  </defs>
  <defs>
   <style type="text/css"/>
  </defs>
  <defs>
   <style type="text/css"/>
  </defs>
  <defs>
   <style type="text/css"/>
  </defs>
  <defs>
   <style type="text/css"/>
  </defs>
  <g stroke="null" id="svg_69">
   <path stroke="null" id="svg_47" fill="#EA6381" d="m51.941257,5.211729l-8.207828,0a1.50189,1.388339 0 0 0 -1.50189,1.388339l0,14.272129a1.50189,1.388339 0 0 0 1.50189,1.388339l8.207828,0a1.475607,1.364043 0 0 0 0.702134,-0.16313a1.50189,1.388339 0 0 0 0.799756,-1.218268l0,-14.279071a1.50189,1.388339 0 0 0 -1.50189,-1.388339zm-8.207828,4.727296l0,-3.338956l8.207828,0l0,10.92276l-8.207828,-7.583804z"/>
   <path stroke="null" id="svg_48" fill="#692F76" d="m51.941257,3.82339l-8.207828,0a3.00378,2.776679 0 0 0 -3.00378,2.776679l0,4.487807l3.00378,2.776679l0,-7.264486l8.207828,0l0,14.272129l-0.61953,0l0.623284,0.576161l1.787249,1.652124a3.00378,2.776679 0 0 0 1.216531,-2.228285l0,-14.272129a3.00378,2.776679 0 0 0 -3.007534,-2.776679z"/>
   <path stroke="null" id="svg_49" fill="#EA6381" d="m51.941257,6.600069l-0.003755,10.92276l-8.204073,-7.583804l0,-3.338956l8.207828,0z"/>
   <path stroke="null" id="svg_50" fill="#CC475F" d="m51.937502,16.481574l-8.204073,-7.583804l0,1.041255l8.204073,7.583804l0.003755,-10.92276l-0.003755,9.881506z"/>
   <path stroke="null" id="svg_51" fill="#F093AA" d="m43.733429,6.600069l8.207828,0l0,1.041255l-8.207828,0l0,-1.041255z"/>
   <path stroke="null" id="svg_52" fill="#F6D95F" d="m47.435587,23.822419l-35.132959,0a6.00756,5.553358 0 0 0 -6.00756,5.553358l0,23.574003a6.00756,5.553358 0 0 0 6.00756,5.553358l35.132959,0a6.00756,5.553358 0 0 0 6.00756,-5.553358l0,-23.574003a6.00756,5.553358 0 0 0 -6.00756,-5.553358zm4.50567,29.12736a4.50567,4.165018 0 0 1 -4.50567,4.165018l-35.132959,0a4.50567,4.165018 0 0 1 -4.50567,-4.165018l0,-20.037208l44.144298,0l0,20.037208z"/>
   <path stroke="null" id="svg_53" fill="#692F76" d="m47.435587,22.43408l-35.132959,0a7.509449,6.941697 0 0 0 -7.509449,6.941697l0,23.574003a7.509449,6.941697 0 0 0 7.509449,6.941697l35.132959,0a7.509449,6.941697 0 0 0 7.509449,-6.941697l0,-23.574003a7.509449,6.941697 0 0 0 -7.509449,-6.941697zm4.50567,30.5157a4.50567,4.165018 0 0 1 -4.50567,4.165018l-35.132959,0a4.50567,4.165018 0 0 1 -4.50567,-4.165018l0,-23.574003a4.50567,4.165018 0 0 1 4.50567,-4.165018l35.132959,0a4.50567,4.165018 0 0 1 4.50567,4.165018l0,23.574003z"/>
   <path stroke="null" id="svg_54" fill="#F6D95F" d="m51.941257,32.912571l0,20.037208a4.50567,4.165018 0 0 1 -4.50567,4.165018l-35.132959,0a4.50567,4.165018 0 0 1 -4.50567,-4.165018l0,-20.037208l44.144298,0z"/>
   <path stroke="null" id="svg_55" fill="#EAB943" d="m47.435587,56.073543l-35.132959,0a4.50567,4.165018 0 0 1 -4.50567,-4.165018l0,1.041255a4.50567,4.165018 0 0 0 4.50567,4.165018l35.132959,0a4.50567,4.165018 0 0 0 4.50567,-4.165018l0,-1.041255a4.50567,4.165018 0 0 1 -4.50567,4.165018z"/>
   <path stroke="null" id="svg_56" fill="#FFFFFF" d="m7.796959,32.912571l44.144298,0l0,1.041255l-44.144298,0l0,-1.041255z"/>
   <path stroke="null" id="svg_57" fill="#F6D95F" d="m56.4657,23.673172l-1.791004,-1.662536l-2.737194,-2.530249l-11.207853,-10.353541l-6.615825,-6.112164a6.00756,5.553358 0 0 0 -8.496942,0l-22.344367,20.65849a6.00756,5.553358 0 0 0 0,7.851059l53.193185,0a6.00756,5.553358 0 0 0 0,-7.851059zm-0.67585,6.46272l-51.841484,0a4.535707,4.192785 0 0 1 0.375472,-5.483941l22.359386,-20.65849a4.50567,4.165018 0 0 1 6.383032,0l10.678437,9.871093l7.584544,7.007643l0.623284,0.576161l1.787249,1.652124l1.678362,1.551469a4.528198,4.185843 0 0 1 0.375472,5.483941l-0.003755,0z"/>
   <path stroke="null" id="svg_58" fill="#692F76" d="m57.528287,22.704806l-4.08514,-3.790167l-1.50189,-1.388339l-8.207828,-7.587275l-8.553263,-7.906593a7.509449,6.941697 0 0 0 -10.618361,0l-22.36314,20.672374a7.509449,6.941697 0 0 0 0,9.815559l0.439303,0.406089l54.443508,0l0.439303,-0.406089a7.509449,6.941697 0 0 0 0,-9.815559l0.007509,0zm-1.745947,7.44497l-51.833974,0a4.535707,4.192785 0 0 1 0.375472,-5.483941l22.359386,-20.672374a4.50567,4.165018 0 0 1 6.383032,0l10.678437,9.871093l7.584544,7.007643l0.623284,0.576161l1.787249,1.652124l1.678362,1.551469a4.528198,4.185843 0 0 1 0.375472,5.483941l-0.011264,0.013883z"/>
   <path stroke="null" id="svg_59" fill="#F6D95F" d="m56.717267,27.598702a4.475632,4.137251 0 0 1 -0.927417,2.53719l-51.841484,0a4.535707,4.192785 0 0 1 0.375472,-5.483941l22.359386,-20.65849a4.50567,4.165018 0 0 1 6.383032,0l10.678437,9.871093l7.584544,7.007643l0.623284,0.576161l1.787249,1.652124l1.678362,1.551469a4.483141,4.144193 0 0 1 1.299135,2.94675z"/>
   <path stroke="null" id="svg_60" fill="#EAB943" d="m55.78985,29.094638l-51.841484,0a4.438085,4.102543 0 0 1 -0.886115,-2.013092a4.614557,4.265673 0 0 0 -0.037547,0.517156a4.471877,4.133781 0 0 0 0.923662,2.53719l51.841484,0a4.475632,4.137251 0 0 0 0.927417,-2.53719a4.678387,4.324677 0 0 0 -0.037547,-0.520627a4.441839,4.106014 0 0 1 -0.88987,2.016563z"/>
   <path stroke="null" id="svg_61" fill="#FFFFFF" d="m4.335103,25.693206l22.348121,-20.65849a4.50567,4.165018 0 0 1 6.383032,0l10.678437,9.871093l7.584544,7.007643l0.623284,0.576161l1.787249,1.652124l1.678362,1.551469a4.464368,4.126839 0 0 1 1.272852,2.429594a4.625821,4.276085 0 0 0 0.037547,-0.520627a4.483141,4.144193 0 0 0 -1.310399,-2.94675l-1.678362,-1.551469l-1.787249,-1.652124l-0.623284,-0.576161l-7.584544,-7.007643l-10.689701,-9.874564a4.50567,4.165018 0 0 0 -6.383032,0l-22.336857,20.65849a4.483141,4.144193 0 0 0 -1.310399,2.94675a4.738463,4.380211 0 0 0 0.037547,0.524098a4.464368,4.126839 0 0 1 1.272852,-2.429594z"/>
   <path stroke="null" id="svg_62" fill="#EA6381" d="m35.206449,39.805676l-10.670928,0a1.50189,1.388339 0 0 0 -1.50189,1.388339l0,11.221253a1.50189,1.388339 0 0 0 1.50189,1.388339l10.670928,0a1.50189,1.388339 0 0 0 1.50189,-1.388339l0,-11.221253a1.50189,1.388339 0 0 0 -1.50189,-1.388339zm0,12.609593l-10.670928,0l0,-11.221253l10.670928,0l0,11.221253z"/>
   <path stroke="null" id="svg_63" fill="#692F76" d="m35.206449,38.417337l-10.670928,0a3.00378,2.776679 0 0 0 -3.00378,2.776679l0,11.221253a3.00378,2.776679 0 0 0 3.00378,2.776679l10.670928,0a3.00378,2.776679 0 0 0 3.00378,-2.776679l0,-11.221253a3.00378,2.776679 0 0 0 -3.00378,-2.776679zm-10.670928,13.997932l0,-11.221253l10.670928,0l0,11.221253l-10.670928,0z"/>
   <path stroke="null" id="svg_64" fill="#EA6381" d="m24.531767,41.194016l10.670928,0l0,11.221253l-10.670928,0l0,-11.221253z"/>
   <path stroke="null" id="svg_65" fill="#CC475F" d="m35.202694,51.374014l-10.670928,0l0,1.041255l10.670928,0l0.003755,-11.221253l-0.003755,10.179999z"/>
   <path stroke="null" id="svg_66" fill="#EB637C" d="m21.092439,16.880722l7.70845,-7.129123a1.50189,1.388339 0 0 1 2.140193,0l7.70845,7.129123a1.50189,1.388339 0 0 1 -1.070097,2.384473l-15.4169,0a1.50189,1.388339 0 0 1 -1.070097,-2.384473z"/>
   <path stroke="null" id="svg_67" fill="#F093AA" d="m24.535522,41.194016l10.670928,0l0,1.041255l-10.670928,0l0,-1.041255z"/>
   <path stroke="null" id="svg_68" fill="#F3A175" d="m18.062376,40.92676l-6.420579,0a1.877362,1.735424 0 0 1 0,-3.470848l6.420579,0a1.877362,1.735424 0 0 1 0,3.470848zm30.00776,0l-6.420579,0a1.877362,1.735424 0 0 1 0,-3.470848l6.420579,0a1.877362,1.735424 0 0 1 0,3.470848z"/>
  </g>
 </g>
</svg>