<svg width="60" height="60" xmlns="http://www.w3.org/2000/svg">
 <!-- Created with Method Draw - http://github.com/duopixel/Method-Draw/ -->

 <g>
  <title>background</title>
  <rect fill="none" id="canvas_background" height="62" width="62" y="-1" x="-1"/>
  <g display="none" overflow="visible" y="0" x="0" height="100%" width="100%" id="canvasGrid">
   <rect fill="url(#gridpattern)" stroke-width="0" y="0" x="0" height="100%" width="100%"/>
  </g>
 </g>
 <g>
  <title>Layer 1</title>
  <!-- Created with Method Draw - http://github.com/duopixel/Method-Draw/ -->
  <defs transform="translate(-27.33749771118164,1.8224998712539673) translate(-0.20249998569488525,0) translate(-0.20249998569488525,0) translate(-0.20249998569488525,0) translate(-0.20249998569488525,0) translate(-0.20249998569488525,0) translate(-0.20249998569488525,0) translate(-0.20249998569488525,0) translate(-0.20249998569488525,0) translate(-0.20249998569488525,0) translate(-0.20249998569488525,0) translate(-0.20249998569488525,0) translate(-0.20249998569488525,0) translate(-0.20249998569488525,0) translate(-0.20249998569488525,0) translate(-0.20249998569488525,0) translate(-0.20249998569488525,0) translate(-0.20249998569488525,0) translate(-0.20249998569488525,0) translate(-0.20249998569488525,0) translate(-0.20249998569488525,0) translate(-0.20249998569488525,0) translate(-0.20249998569488525,0) translate(-0.20249998569488525,0) translate(-0.20249998569488525,0) translate(-0.20249998569488525,0) translate(-0.20249998569488525,0) translate(-0.20249998569488525,0) translate(-0.20249998569488525,0) translate(-0.20249998569488525,0) translate(-0.20249998569488525,0) translate(-0.20249998569488525,0) translate(-0.20249998569488525,0) translate(-0.20249998569488525,0) translate(-0.20249998569488525,0) translate(-0.20249998569488525,0) translate(-0.20249998569488525,0) translate(-0.20249998569488525,0) translate(-0.20249998569488525,0) translate(-0.20249998569488525,0) translate(-0.20249998569488525,0) translate(-0.20249998569488525,0) translate(-0.20249998569488525,0) translate(-0.20249998569488525,0) translate(-0.20249998569488525,0) translate(-0.20249998569488525,0) translate(-0.20249998569488525,0) translate(-0.20249998569488525,0) translate(-0.20249998569488525,0) translate(-0.20249998569488525,0) translate(-0.20249998569488525,0) translate(-0.20249998569488525,0) translate(-0.20249998569488525,0) translate(-0.20249998569488525,0) translate(-0.20249998569488525,0) translate(-0.20249998569488525,0) translate(-0.20249998569488525,0) translate(-0.20249998569488525,0) translate(-0.20249998569488525,0) translate(-0.20249998569488525,0) translate(-0.20249998569488525,0) translate(-0.20249998569488525,0) translate(-0.20249998569488525,0) translate(-0.20249998569488525,0) translate(-0.20249998569488525,0) translate(-0.20249998569488525,0) translate(-0.20249998569488525,0) translate(-0.20249998569488525,0) translate(-0.20249998569488525,0) translate(-0.20249998569488525,0) translate(-0.20249998569488525,0) translate(-0.20249998569488525,0) translate(-0.20249998569488525,0) translate(-0.20249998569488525,0) translate(-0.20249998569488525,0) translate(-0.20249998569488525,0) translate(-0.20249998569488525,0) translate(-0.20249998569488525,0) translate(-0.20249998569488525,0) translate(-0.20249998569488525,0) translate(-0.20249998569488525,0) translate(-0.20249998569488525,0) translate(-0.20249998569488525,0) translate(-0.20249998569488525,0) translate(-0.20249998569488525,0) translate(-0.20249998569488525,0) translate(-0.20249998569488525,0) translate(-0.20249998569488525,0) translate(-0.20249998569488525,0) translate(-0.20249998569488525,0) translate(33.412498474121094,-7.289999485015869) translate(12.959999084472656,26.12249755859375) translate(9.719999313354492,-32.1974983215332) translate(12.959999084472656,13.972498893737793) translate(-10.732499122619629,1.0124999284744263) translate(-0.4049999713897705,0) translate(26.729997634887695,0.4049999713897705) translate(9.112499237060547,-0.809999942779541) translate(28.72499656677246,0) translate(0,10.49999713897705) ">
   <style type="text/css"/>
  </defs>
  <defs>
   <style type="text/css"/>
  </defs>
  <defs>
   <style type="text/css"/>
  </defs>
  <defs>
   <style type="text/css"/>
  </defs>
  <defs>
   <style type="text/css"/>
  </defs>
  <defs>
   <style type="text/css"/>
  </defs>
  <defs>
   <style type="text/css"/>
  </defs>
  <defs>
   <style type="text/css"/>
  </defs>
  <!-- Created with Method Draw - http://github.com/duopixel/Method-Draw/ -->
  <!-- Created with Method Draw - http://github.com/duopixel/Method-Draw/ -->
  <defs stroke="null" transform="translate(10.764081954956055,17.905899047851562) translate(10.764081954956055,-10.120725631713867) translate(-10.507793426513672,15.829852104187012) translate(-36.51906204223633,28.983381271362305) translate(-13.12568187713623,0) translate(0,-13.12568187713623) ">
   <style stroke="null" type="text/css"/>
  </defs>
  <defs stroke="null" transform="translate(10.764081954956055,17.905899047851562) translate(10.764081954956055,-10.120725631713867) translate(-10.507793426513672,15.829852104187012) translate(-36.51906204223633,28.983381271362305) translate(-13.12568187713623,0) translate(0,-13.12568187713623) ">
   <style stroke="null" type="text/css"/>
  </defs>
  <ellipse transform="matrix(0.9754466327925857,0,0,0.9633501718081757,49.53739012440577,-14.42701407275008) " stroke="null" fill="#f98bc2" stroke-width="null" stroke-opacity="null" fill-opacity="null" cx="-31.670278" cy="33.819291" id="svg_89" rx="18.999615" ry="18.999615"/>
  <path stroke="null" id="svg_177" fill="#d098ff" d="m23.279754,49.359319c1.603191,0 2.902272,1.359981 2.902272,3.039958c0,1.67831 -1.299081,3.039958 -2.902272,3.039958s-2.902272,-1.361648 -2.902272,-3.039958c0,-1.679977 1.300734,-3.041625 2.902272,-3.041625l0,0.001667zm0,-4.561604c-4.006325,0 -7.25568,3.403286 -7.25568,7.599895c0,4.199942 3.249355,7.601562 7.25568,7.601562c4.007978,0 7.25568,-3.403287 7.25568,-7.599895c0,-2.016639 -0.763582,-3.949946 -2.123815,-5.374926a7.121805,7.181568 0 0 0 -5.131865,-2.226636zm24.670964,4.559937c1.17347,0 2.231246,0.741657 2.6808,1.876641a3.100605,3.126624 0 0 1 -0.628054,3.313287a2.822939,2.846627 0 0 1 -3.16341,0.659991a3.017966,3.043291 0 0 1 -1.791608,-2.808294c0,-1.679977 1.299081,-3.041625 2.902272,-3.041625zm0,-4.559937c-4.007978,0 -7.25568,3.403286 -7.25568,7.599895c0,4.199942 3.247702,7.601562 7.25568,7.601562c4.006325,0 7.25568,-3.403287 7.25568,-7.599895c0,-2.016639 -0.765235,-3.949946 -2.125468,-5.374926a7.121805,7.181568 0 0 0 -5.130212,-2.226636z"/>
  <path stroke="null" id="svg_78" fill="#d4237a" d="m52.054131,44.037726l-33.174489,0c-2.627911,-0.023333 -4.81949,-2.109971 -5.09385,-4.849934l-2.307273,-22.133027c-0.165278,-1.548312 0.310721,-3.096624 1.305691,-4.254942a5.024434,5.066597 0 0 1 3.801382,-1.778308l37.833659,0a5.062448,5.10493 0 0 1 3.743534,1.853307c0.991665,1.161651 1.466011,2.708296 1.305692,4.256608l-2.30562,22.058029c-0.26775,2.746629 -2.472551,4.839933 -5.108726,4.849933l0,-0.001666zm-35.468539,-28.454608a0.743748,0.74999 0 0 0 -0.565249,0.27333a0.912331,0.919987 0 0 0 -0.216514,0.71499l2.335371,22.148028a0.813165,0.819989 0 0 0 0.770192,0.774989l33.144739,0a0.811512,0.818322 0 0 0 0.783415,-0.774989l2.307273,-22.149695a0.975137,0.98332 0 0 0 -0.218166,-0.713323a0.743748,0.74999 0 0 0 -0.565249,-0.27333l-37.77416,0l-0.001652,0zm-1.826316,14.226471c-1.102401,0 -2.03126,-0.861655 -2.163482,-2.006639l-2.596509,-22.528023a0.824734,0.831655 0 0 0 -0.770193,-0.71499l-7.052388,0c-1.201567,0 -2.176704,-1.019986 -2.176704,-2.279968c0,-1.258316 0.975137,-2.279969 2.176704,-2.279969l7.052388,0c2.571717,0.02 4.733547,2.016639 5.078976,4.683269l2.611384,22.618021c0.071069,0.599992 -0.090903,1.20665 -0.446249,1.68331c-0.356999,0.474993 -0.879276,0.783322 -1.454442,0.854988l-0.259485,-0.029999z"/>
  <!-- Created with Method Draw - http://github.com/duopixel/Method-Draw/ -->
  <!-- Created with Method Draw - http://github.com/duopixel/Method-Draw/ -->
  <ellipse ry="7.249853" rx="7.249853" id="svg_174" cy="94.498692" cx="27.62505" stroke-opacity="null" stroke-width="null" stroke="null" fill="#d098ff"/>
  <ellipse ry="7.249853" rx="7.249853" id="svg_173" cy="82.498936" cx="48.879618" stroke-opacity="null" stroke-width="null" stroke="null" fill="#d098ff"/>
 </g>
</svg>