<svg width="60" height="60" xmlns="http://www.w3.org/2000/svg">
 <!-- Created with Method Draw - http://github.com/duopixel/Method-Draw/ -->

 <g>
  <title>background</title>
  <rect fill="none" id="canvas_background" height="62" width="62" y="-1" x="-1"/>
  <g display="none" overflow="visible" y="0" x="0" height="100%" width="100%" id="canvasGrid">
   <rect fill="url(#gridpattern)" stroke-width="0" y="0" x="0" height="100%" width="100%"/>
  </g>
 </g>
 <g>
  <title>Layer 1</title>
  <defs>
   <style type="text/css"/>
  </defs>
  <!-- Created with Method Draw - http://github.com/duopixel/Method-Draw/ -->
  <defs>
   <style type="text/css"/>
  </defs>
  <!-- Created with Method Draw - http://github.com/duopixel/Method-Draw/ -->
  <!-- Created with Method Draw - http://github.com/duopixel/Method-Draw/ -->
  <g stroke="null" transform="matrix(0.975363979118133,0,0,0.9793962666948818,-10.925701809781927,-10.970870135481544) " id="svg_73">
   <title stroke="null" transform="translate(0,-6.695657253265381) translate(-2.6613457202911377,0) translate(-3.277880907058716,-46.394622802734375) translate(0,-0.2521446645259857) translate(0,-0.2521446645259857) translate(0,-0.2521446645259857) translate(0,-0.2521446645259857) translate(0,-0.2521446645259857) translate(0,-0.2521446645259857) translate(0,-0.2521446645259857) translate(0,-0.2521446645259857) translate(0,-0.2521446645259857) translate(0,-0.2521446645259857) translate(0,-0.2521446645259857) translate(0,-0.2521446645259857) translate(0,-0.2521446645259857) translate(0,-0.2521446645259857) translate(0,-0.2521446645259857) translate(0,-0.2521446645259857) translate(0,-0.2521446645259857) translate(0,-0.2521446645259857) translate(0,-0.2521446645259857) translate(0,-0.2521446645259857) translate(0,-0.2521446645259857) translate(0,-0.2521446645259857) translate(0,-0.2521446645259857) translate(0,-0.2521446645259857) translate(0,-0.2521446645259857) translate(0,-0.2521446645259857) translate(0,-0.2521446645259857) translate(0,-0.2521446645259857) translate(0,-0.2521446645259857) translate(0,-0.2521446645259857) translate(0,-0.2521446645259857) translate(0,-0.2521446645259857) translate(0,-0.2521446645259857) translate(0,-0.2521446645259857) translate(0,-0.2521446645259857) translate(0,-0.2521446645259857) translate(0,-0.2521446645259857) translate(0,-0.2521446645259857) translate(0,-0.2521446645259857) translate(0,-0.2521446645259857) translate(0,-0.2521446645259857) translate(0,-0.2521446645259857) translate(0,-0.2521446645259857) translate(0,-0.2521446645259857) translate(0,-0.2521446645259857) translate(0,-0.2521446645259857) translate(31.265939712524414,90.0156478881836) translate(-13.125046730041504,0) translate(0,-13.125046730041504) ">background</title>
   <rect stroke="null" x="11.201666" y="11.201667" width="62" height="62" id="svg_71" fill="none"/>
   <g stroke="null" id="svg_70" display="none">
    <rect stroke="null" id="svg_74" width="60" height="60" x="12.201666" y="12.201667" stroke-width="0" fill="url(#gridpattern)"/>
   </g>
  </g>
  <g stroke="null" transform="matrix(0.975363979118133,0,0,0.9793962666948818,-10.925701809781927,-10.970870135481544) " id="svg_75">
   <title stroke="null" transform="translate(0,-6.695657253265381) translate(-2.6613457202911377,0) translate(-3.277880907058716,-46.394622802734375) translate(0,-0.2521446645259857) translate(0,-0.2521446645259857) translate(0,-0.2521446645259857) translate(0,-0.2521446645259857) translate(0,-0.2521446645259857) translate(0,-0.2521446645259857) translate(0,-0.2521446645259857) translate(0,-0.2521446645259857) translate(0,-0.2521446645259857) translate(0,-0.2521446645259857) translate(0,-0.2521446645259857) translate(0,-0.2521446645259857) translate(0,-0.2521446645259857) translate(0,-0.2521446645259857) translate(0,-0.2521446645259857) translate(0,-0.2521446645259857) translate(0,-0.2521446645259857) translate(0,-0.2521446645259857) translate(0,-0.2521446645259857) translate(0,-0.2521446645259857) translate(0,-0.2521446645259857) translate(0,-0.2521446645259857) translate(0,-0.2521446645259857) translate(0,-0.2521446645259857) translate(0,-0.2521446645259857) translate(0,-0.2521446645259857) translate(0,-0.2521446645259857) translate(0,-0.2521446645259857) translate(0,-0.2521446645259857) translate(0,-0.2521446645259857) translate(0,-0.2521446645259857) translate(0,-0.2521446645259857) translate(0,-0.2521446645259857) translate(0,-0.2521446645259857) translate(0,-0.2521446645259857) translate(0,-0.2521446645259857) translate(0,-0.2521446645259857) translate(0,-0.2521446645259857) translate(0,-0.2521446645259857) translate(0,-0.2521446645259857) translate(0,-0.2521446645259857) translate(0,-0.2521446645259857) translate(0,-0.2521446645259857) translate(0,-0.2521446645259857) translate(0,-0.2521446645259857) translate(0,-0.2521446645259857) translate(31.265939712524414,90.0156478881836) translate(-13.125046730041504,0) translate(0,-13.125046730041504) ">Layer 1</title>
   <defs stroke="null" transform="translate(0,-6.695657253265381) translate(-2.6613457202911377,0) translate(-3.277880907058716,-46.394622802734375) translate(0,-0.2521446645259857) translate(0,-0.2521446645259857) translate(0,-0.2521446645259857) translate(0,-0.2521446645259857) translate(0,-0.2521446645259857) translate(0,-0.2521446645259857) translate(0,-0.2521446645259857) translate(0,-0.2521446645259857) translate(0,-0.2521446645259857) translate(0,-0.2521446645259857) translate(0,-0.2521446645259857) translate(0,-0.2521446645259857) translate(0,-0.2521446645259857) translate(0,-0.2521446645259857) translate(0,-0.2521446645259857) translate(0,-0.2521446645259857) translate(0,-0.2521446645259857) translate(0,-0.2521446645259857) translate(0,-0.2521446645259857) translate(0,-0.2521446645259857) translate(0,-0.2521446645259857) translate(0,-0.2521446645259857) translate(0,-0.2521446645259857) translate(0,-0.2521446645259857) translate(0,-0.2521446645259857) translate(0,-0.2521446645259857) translate(0,-0.2521446645259857) translate(0,-0.2521446645259857) translate(0,-0.2521446645259857) translate(0,-0.2521446645259857) translate(0,-0.2521446645259857) translate(0,-0.2521446645259857) translate(0,-0.2521446645259857) translate(0,-0.2521446645259857) translate(0,-0.2521446645259857) translate(0,-0.2521446645259857) translate(0,-0.2521446645259857) translate(0,-0.2521446645259857) translate(0,-0.2521446645259857) translate(0,-0.2521446645259857) translate(0,-0.2521446645259857) translate(0,-0.2521446645259857) translate(0,-0.2521446645259857) translate(0,-0.2521446645259857) translate(0,-0.2521446645259857) translate(0,-0.2521446645259857) translate(31.265939712524414,90.0156478881836) translate(-13.125046730041504,0) translate(0,-13.125046730041504) ">
    <style stroke="null" type="text/css"/>
   </defs>
   <!-- Created with Method Draw - http://github.com/duopixel/Method-Draw/ -->
   <g stroke="null" id="svg_67">
    <g stroke="null" id="svg_68" transform="matrix(0.19252636994778152,0,0,0.18900535662461201,10.729244871894561,-12.655991868211629) ">
     <title stroke="null" transform="translate(0,-35.42575454711914) translate(-13.82327938079834,0) translate(-17.02562141418457,-245.4672393798828) translate(0,-1.3340609073638916) translate(0,-1.3340609073638916) translate(0,-1.3340609073638916) translate(0,-1.3340609073638916) translate(0,-1.3340609073638916) translate(0,-1.3340609073638916) translate(0,-1.3340609073638916) translate(0,-1.3340609073638916) translate(0,-1.3340609073638916) translate(0,-1.3340609073638916) translate(0,-1.3340609073638916) translate(0,-1.3340609073638916) translate(0,-1.3340609073638916) translate(0,-1.3340609073638916) translate(0,-1.3340609073638916) translate(0,-1.3340609073638916) translate(0,-1.3340609073638916) translate(0,-1.3340609073638916) translate(0,-1.3340609073638916) translate(0,-1.3340609073638916) translate(0,-1.3340609073638916) translate(0,-1.3340609073638916) translate(0,-1.3340609073638916) translate(0,-1.3340609073638916) translate(0,-1.3340609073638916) translate(0,-1.3340609073638916) translate(0,-1.3340609073638916) translate(0,-1.3340609073638916) translate(0,-1.3340609073638916) translate(0,-1.3340609073638916) translate(0,-1.3340609073638916) translate(0,-1.3340609073638916) translate(0,-1.3340609073638916) translate(0,-1.3340609073638916) translate(0,-1.3340609073638916) translate(0,-1.3340609073638916) translate(0,-1.3340609073638916) translate(0,-1.3340609073638916) translate(0,-1.3340609073638916) translate(0,-1.3340609073638916) translate(0,-1.3340609073638916) translate(0,-1.3340609073638916) translate(0,-1.3340609073638916) translate(0,-1.3340609073638916) translate(0,-1.3340609073638916) translate(0,-1.3340609073638916) translate(162.39822387695312,476.259765625) translate(-68.17272186279297,0) translate(0,-69.4427261352539) ">Layer 1</title>
     <!-- Created with Method Draw - http://github.com/duopixel/Method-Draw/ -->
     <defs stroke="null" transform="translate(0,-35.42575454711914) translate(-13.82327938079834,0) translate(-17.02562141418457,-245.4672393798828) translate(0,-1.3340609073638916) translate(0,-1.3340609073638916) translate(0,-1.3340609073638916) translate(0,-1.3340609073638916) translate(0,-1.3340609073638916) translate(0,-1.3340609073638916) translate(0,-1.3340609073638916) translate(0,-1.3340609073638916) translate(0,-1.3340609073638916) translate(0,-1.3340609073638916) translate(0,-1.3340609073638916) translate(0,-1.3340609073638916) translate(0,-1.3340609073638916) translate(0,-1.3340609073638916) translate(0,-1.3340609073638916) translate(0,-1.3340609073638916) translate(0,-1.3340609073638916) translate(0,-1.3340609073638916) translate(0,-1.3340609073638916) translate(0,-1.3340609073638916) translate(0,-1.3340609073638916) translate(0,-1.3340609073638916) translate(0,-1.3340609073638916) translate(0,-1.3340609073638916) translate(0,-1.3340609073638916) translate(0,-1.3340609073638916) translate(0,-1.3340609073638916) translate(0,-1.3340609073638916) translate(0,-1.3340609073638916) translate(0,-1.3340609073638916) translate(0,-1.3340609073638916) translate(0,-1.3340609073638916) translate(0,-1.3340609073638916) translate(0,-1.3340609073638916) translate(0,-1.3340609073638916) translate(0,-1.3340609073638916) translate(0,-1.3340609073638916) translate(0,-1.3340609073638916) translate(0,-1.3340609073638916) translate(0,-1.3340609073638916) translate(0,-1.3340609073638916) translate(0,-1.3340609073638916) translate(0,-1.3340609073638916) translate(0,-1.3340609073638916) translate(0,-1.3340609073638916) translate(0,-1.3340609073638916) translate(162.39822387695312,476.259765625) translate(-68.17272186279297,0) translate(0,-69.4427261352539) ">
      <style stroke="null" type="text/css"/>
     </defs>
     <defs stroke="null" transform="translate(0,-35.42575454711914) translate(-13.82327938079834,0) translate(-17.02562141418457,-245.4672393798828) translate(0,-1.3340609073638916) translate(0,-1.3340609073638916) translate(0,-1.3340609073638916) translate(0,-1.3340609073638916) translate(0,-1.3340609073638916) translate(0,-1.3340609073638916) translate(0,-1.3340609073638916) translate(0,-1.3340609073638916) translate(0,-1.3340609073638916) translate(0,-1.3340609073638916) translate(0,-1.3340609073638916) translate(0,-1.3340609073638916) translate(0,-1.3340609073638916) translate(0,-1.3340609073638916) translate(0,-1.3340609073638916) translate(0,-1.3340609073638916) translate(0,-1.3340609073638916) translate(0,-1.3340609073638916) translate(0,-1.3340609073638916) translate(0,-1.3340609073638916) translate(0,-1.3340609073638916) translate(0,-1.3340609073638916) translate(0,-1.3340609073638916) translate(0,-1.3340609073638916) translate(0,-1.3340609073638916) translate(0,-1.3340609073638916) translate(0,-1.3340609073638916) translate(0,-1.3340609073638916) translate(0,-1.3340609073638916) translate(0,-1.3340609073638916) translate(0,-1.3340609073638916) translate(0,-1.3340609073638916) translate(0,-1.3340609073638916) translate(0,-1.3340609073638916) translate(0,-1.3340609073638916) translate(0,-1.3340609073638916) translate(0,-1.3340609073638916) translate(0,-1.3340609073638916) translate(0,-1.3340609073638916) translate(0,-1.3340609073638916) translate(0,-1.3340609073638916) translate(0,-1.3340609073638916) translate(0,-1.3340609073638916) translate(0,-1.3340609073638916) translate(0,-1.3340609073638916) translate(0,-1.3340609073638916) translate(162.39822387695312,476.259765625) translate(-68.17272186279297,0) translate(0,-69.4427261352539) ">
      <style stroke="null" type="text/css"/>
     </defs>
     <defs stroke="null" transform="translate(0,-35.42575454711914) translate(-13.82327938079834,0) translate(-17.02562141418457,-245.4672393798828) translate(0,-1.3340609073638916) translate(0,-1.3340609073638916) translate(0,-1.3340609073638916) translate(0,-1.3340609073638916) translate(0,-1.3340609073638916) translate(0,-1.3340609073638916) translate(0,-1.3340609073638916) translate(0,-1.3340609073638916) translate(0,-1.3340609073638916) translate(0,-1.3340609073638916) translate(0,-1.3340609073638916) translate(0,-1.3340609073638916) translate(0,-1.3340609073638916) translate(0,-1.3340609073638916) translate(0,-1.3340609073638916) translate(0,-1.3340609073638916) translate(0,-1.3340609073638916) translate(0,-1.3340609073638916) translate(0,-1.3340609073638916) translate(0,-1.3340609073638916) translate(0,-1.3340609073638916) translate(0,-1.3340609073638916) translate(0,-1.3340609073638916) translate(0,-1.3340609073638916) translate(0,-1.3340609073638916) translate(0,-1.3340609073638916) translate(0,-1.3340609073638916) translate(0,-1.3340609073638916) translate(0,-1.3340609073638916) translate(0,-1.3340609073638916) translate(0,-1.3340609073638916) translate(0,-1.3340609073638916) translate(0,-1.3340609073638916) translate(0,-1.3340609073638916) translate(0,-1.3340609073638916) translate(0,-1.3340609073638916) translate(0,-1.3340609073638916) translate(0,-1.3340609073638916) translate(0,-1.3340609073638916) translate(0,-1.3340609073638916) translate(0,-1.3340609073638916) translate(0,-1.3340609073638916) translate(0,-1.3340609073638916) translate(0,-1.3340609073638916) translate(0,-1.3340609073638916) translate(0,-1.3340609073638916) translate(162.39822387695312,476.259765625) translate(-68.17272186279297,0) translate(0,-69.4427261352539) ">
      <style stroke="null" type="text/css"/>
     </defs>
     <defs stroke="null" transform="translate(0,-35.42575454711914) translate(-13.82327938079834,0) translate(-17.02562141418457,-245.4672393798828) translate(0,-1.3340609073638916) translate(0,-1.3340609073638916) translate(0,-1.3340609073638916) translate(0,-1.3340609073638916) translate(0,-1.3340609073638916) translate(0,-1.3340609073638916) translate(0,-1.3340609073638916) translate(0,-1.3340609073638916) translate(0,-1.3340609073638916) translate(0,-1.3340609073638916) translate(0,-1.3340609073638916) translate(0,-1.3340609073638916) translate(0,-1.3340609073638916) translate(0,-1.3340609073638916) translate(0,-1.3340609073638916) translate(0,-1.3340609073638916) translate(0,-1.3340609073638916) translate(0,-1.3340609073638916) translate(0,-1.3340609073638916) translate(0,-1.3340609073638916) translate(0,-1.3340609073638916) translate(0,-1.3340609073638916) translate(0,-1.3340609073638916) translate(0,-1.3340609073638916) translate(0,-1.3340609073638916) translate(0,-1.3340609073638916) translate(0,-1.3340609073638916) translate(0,-1.3340609073638916) translate(0,-1.3340609073638916) translate(0,-1.3340609073638916) translate(0,-1.3340609073638916) translate(0,-1.3340609073638916) translate(0,-1.3340609073638916) translate(0,-1.3340609073638916) translate(0,-1.3340609073638916) translate(0,-1.3340609073638916) translate(0,-1.3340609073638916) translate(0,-1.3340609073638916) translate(0,-1.3340609073638916) translate(0,-1.3340609073638916) translate(0,-1.3340609073638916) translate(0,-1.3340609073638916) translate(0,-1.3340609073638916) translate(0,-1.3340609073638916) translate(0,-1.3340609073638916) translate(0,-1.3340609073638916) translate(162.39822387695312,476.259765625) translate(-68.17272186279297,0) translate(0,-69.4427261352539) ">
      <style stroke="null" type="text/css"/>
     </defs>
     <defs stroke="null" transform="translate(0,-35.42575454711914) translate(-13.82327938079834,0) translate(-17.02562141418457,-245.4672393798828) translate(0,-1.3340609073638916) translate(0,-1.3340609073638916) translate(0,-1.3340609073638916) translate(0,-1.3340609073638916) translate(0,-1.3340609073638916) translate(0,-1.3340609073638916) translate(0,-1.3340609073638916) translate(0,-1.3340609073638916) translate(0,-1.3340609073638916) translate(0,-1.3340609073638916) translate(0,-1.3340609073638916) translate(0,-1.3340609073638916) translate(0,-1.3340609073638916) translate(0,-1.3340609073638916) translate(0,-1.3340609073638916) translate(0,-1.3340609073638916) translate(0,-1.3340609073638916) translate(0,-1.3340609073638916) translate(0,-1.3340609073638916) translate(0,-1.3340609073638916) translate(0,-1.3340609073638916) translate(0,-1.3340609073638916) translate(0,-1.3340609073638916) translate(0,-1.3340609073638916) translate(0,-1.3340609073638916) translate(0,-1.3340609073638916) translate(0,-1.3340609073638916) translate(0,-1.3340609073638916) translate(0,-1.3340609073638916) translate(0,-1.3340609073638916) translate(0,-1.3340609073638916) translate(0,-1.3340609073638916) translate(0,-1.3340609073638916) translate(0,-1.3340609073638916) translate(0,-1.3340609073638916) translate(0,-1.3340609073638916) translate(0,-1.3340609073638916) translate(0,-1.3340609073638916) translate(0,-1.3340609073638916) translate(0,-1.3340609073638916) translate(0,-1.3340609073638916) translate(0,-1.3340609073638916) translate(0,-1.3340609073638916) translate(0,-1.3340609073638916) translate(0,-1.3340609073638916) translate(0,-1.3340609073638916) translate(162.39822387695312,476.259765625) translate(-68.17272186279297,0) translate(0,-69.4427261352539) ">
      <style stroke="null" type="text/css"/>
     </defs>
     <defs stroke="null" transform="translate(0,-35.42575454711914) translate(-13.82327938079834,0) translate(-17.02562141418457,-245.4672393798828) translate(0,-1.3340609073638916) translate(0,-1.3340609073638916) translate(0,-1.3340609073638916) translate(0,-1.3340609073638916) translate(0,-1.3340609073638916) translate(0,-1.3340609073638916) translate(0,-1.3340609073638916) translate(0,-1.3340609073638916) translate(0,-1.3340609073638916) translate(0,-1.3340609073638916) translate(0,-1.3340609073638916) translate(0,-1.3340609073638916) translate(0,-1.3340609073638916) translate(0,-1.3340609073638916) translate(0,-1.3340609073638916) translate(0,-1.3340609073638916) translate(0,-1.3340609073638916) translate(0,-1.3340609073638916) translate(0,-1.3340609073638916) translate(0,-1.3340609073638916) translate(0,-1.3340609073638916) translate(0,-1.3340609073638916) translate(0,-1.3340609073638916) translate(0,-1.3340609073638916) translate(0,-1.3340609073638916) translate(0,-1.3340609073638916) translate(0,-1.3340609073638916) translate(0,-1.3340609073638916) translate(0,-1.3340609073638916) translate(0,-1.3340609073638916) translate(0,-1.3340609073638916) translate(0,-1.3340609073638916) translate(0,-1.3340609073638916) translate(0,-1.3340609073638916) translate(0,-1.3340609073638916) translate(0,-1.3340609073638916) translate(0,-1.3340609073638916) translate(0,-1.3340609073638916) translate(0,-1.3340609073638916) translate(0,-1.3340609073638916) translate(0,-1.3340609073638916) translate(0,-1.3340609073638916) translate(0,-1.3340609073638916) translate(0,-1.3340609073638916) translate(0,-1.3340609073638916) translate(0,-1.3340609073638916) translate(162.39822387695312,476.259765625) translate(-68.17272186279297,0) translate(0,-69.4427261352539) ">
      <style stroke="null" type="text/css"/>
     </defs>
     <defs stroke="null" transform="translate(0,-35.42575454711914) translate(-13.82327938079834,0) translate(-17.02562141418457,-245.4672393798828) translate(0,-1.3340609073638916) translate(0,-1.3340609073638916) translate(0,-1.3340609073638916) translate(0,-1.3340609073638916) translate(0,-1.3340609073638916) translate(0,-1.3340609073638916) translate(0,-1.3340609073638916) translate(0,-1.3340609073638916) translate(0,-1.3340609073638916) translate(0,-1.3340609073638916) translate(0,-1.3340609073638916) translate(0,-1.3340609073638916) translate(0,-1.3340609073638916) translate(0,-1.3340609073638916) translate(0,-1.3340609073638916) translate(0,-1.3340609073638916) translate(0,-1.3340609073638916) translate(0,-1.3340609073638916) translate(0,-1.3340609073638916) translate(0,-1.3340609073638916) translate(0,-1.3340609073638916) translate(0,-1.3340609073638916) translate(0,-1.3340609073638916) translate(0,-1.3340609073638916) translate(0,-1.3340609073638916) translate(0,-1.3340609073638916) translate(0,-1.3340609073638916) translate(0,-1.3340609073638916) translate(0,-1.3340609073638916) translate(0,-1.3340609073638916) translate(0,-1.3340609073638916) translate(0,-1.3340609073638916) translate(0,-1.3340609073638916) translate(0,-1.3340609073638916) translate(0,-1.3340609073638916) translate(0,-1.3340609073638916) translate(0,-1.3340609073638916) translate(0,-1.3340609073638916) translate(0,-1.3340609073638916) translate(0,-1.3340609073638916) translate(0,-1.3340609073638916) translate(0,-1.3340609073638916) translate(0,-1.3340609073638916) translate(0,-1.3340609073638916) translate(0,-1.3340609073638916) translate(0,-1.3340609073638916) translate(162.39822387695312,476.259765625) translate(-68.17272186279297,0) translate(0,-69.4427261352539) ">
      <style stroke="null" type="text/css"/>
     </defs>
     <defs stroke="null" transform="translate(0,-35.42575454711914) translate(-13.82327938079834,0) translate(-17.02562141418457,-245.4672393798828) translate(0,-1.3340609073638916) translate(0,-1.3340609073638916) translate(0,-1.3340609073638916) translate(0,-1.3340609073638916) translate(0,-1.3340609073638916) translate(0,-1.3340609073638916) translate(0,-1.3340609073638916) translate(0,-1.3340609073638916) translate(0,-1.3340609073638916) translate(0,-1.3340609073638916) translate(0,-1.3340609073638916) translate(0,-1.3340609073638916) translate(0,-1.3340609073638916) translate(0,-1.3340609073638916) translate(0,-1.3340609073638916) translate(0,-1.3340609073638916) translate(0,-1.3340609073638916) translate(0,-1.3340609073638916) translate(0,-1.3340609073638916) translate(0,-1.3340609073638916) translate(0,-1.3340609073638916) translate(0,-1.3340609073638916) translate(0,-1.3340609073638916) translate(0,-1.3340609073638916) translate(0,-1.3340609073638916) translate(0,-1.3340609073638916) translate(0,-1.3340609073638916) translate(0,-1.3340609073638916) translate(0,-1.3340609073638916) translate(0,-1.3340609073638916) translate(0,-1.3340609073638916) translate(0,-1.3340609073638916) translate(0,-1.3340609073638916) translate(0,-1.3340609073638916) translate(0,-1.3340609073638916) translate(0,-1.3340609073638916) translate(0,-1.3340609073638916) translate(0,-1.3340609073638916) translate(0,-1.3340609073638916) translate(0,-1.3340609073638916) translate(0,-1.3340609073638916) translate(0,-1.3340609073638916) translate(0,-1.3340609073638916) translate(0,-1.3340609073638916) translate(0,-1.3340609073638916) translate(0,-1.3340609073638916) translate(162.39822387695312,476.259765625) translate(-68.17272186279297,0) translate(0,-69.4427261352539) ">
      <style stroke="null" type="text/css"/>
     </defs>
     <!-- Created with Method Draw - http://github.com/duopixel/Method-Draw/ -->
     <!-- Created with Method Draw - http://github.com/duopixel/Method-Draw/ -->
     <defs stroke="null" transform="translate(0,-35.42575454711914) translate(-13.82327938079834,0) translate(-17.02562141418457,-245.4672393798828) translate(0,-1.3340609073638916) translate(0,-1.3340609073638916) translate(0,-1.3340609073638916) translate(0,-1.3340609073638916) translate(0,-1.3340609073638916) translate(0,-1.3340609073638916) translate(0,-1.3340609073638916) translate(0,-1.3340609073638916) translate(0,-1.3340609073638916) translate(0,-1.3340609073638916) translate(0,-1.3340609073638916) translate(0,-1.3340609073638916) translate(0,-1.3340609073638916) translate(0,-1.3340609073638916) translate(0,-1.3340609073638916) translate(0,-1.3340609073638916) translate(0,-1.3340609073638916) translate(0,-1.3340609073638916) translate(0,-1.3340609073638916) translate(0,-1.3340609073638916) translate(0,-1.3340609073638916) translate(0,-1.3340609073638916) translate(0,-1.3340609073638916) translate(0,-1.3340609073638916) translate(0,-1.3340609073638916) translate(0,-1.3340609073638916) translate(0,-1.3340609073638916) translate(0,-1.3340609073638916) translate(0,-1.3340609073638916) translate(0,-1.3340609073638916) translate(0,-1.3340609073638916) translate(0,-1.3340609073638916) translate(0,-1.3340609073638916) translate(0,-1.3340609073638916) translate(0,-1.3340609073638916) translate(0,-1.3340609073638916) translate(0,-1.3340609073638916) translate(0,-1.3340609073638916) translate(0,-1.3340609073638916) translate(0,-1.3340609073638916) translate(0,-1.3340609073638916) translate(0,-1.3340609073638916) translate(0,-1.3340609073638916) translate(0,-1.3340609073638916) translate(0,-1.3340609073638916) translate(0,-1.3340609073638916) translate(162.39822387695312,476.259765625) translate(-68.17272186279297,0) translate(0,-69.4427261352539) ">
      <style stroke="null" type="text/css"/>
     </defs>
     <defs stroke="null" transform="translate(0,-35.42575454711914) translate(-13.82327938079834,0) translate(-17.02562141418457,-245.4672393798828) translate(0,-1.3340609073638916) translate(0,-1.3340609073638916) translate(0,-1.3340609073638916) translate(0,-1.3340609073638916) translate(0,-1.3340609073638916) translate(0,-1.3340609073638916) translate(0,-1.3340609073638916) translate(0,-1.3340609073638916) translate(0,-1.3340609073638916) translate(0,-1.3340609073638916) translate(0,-1.3340609073638916) translate(0,-1.3340609073638916) translate(0,-1.3340609073638916) translate(0,-1.3340609073638916) translate(0,-1.3340609073638916) translate(0,-1.3340609073638916) translate(0,-1.3340609073638916) translate(0,-1.3340609073638916) translate(0,-1.3340609073638916) translate(0,-1.3340609073638916) translate(0,-1.3340609073638916) translate(0,-1.3340609073638916) translate(0,-1.3340609073638916) translate(0,-1.3340609073638916) translate(0,-1.3340609073638916) translate(0,-1.3340609073638916) translate(0,-1.3340609073638916) translate(0,-1.3340609073638916) translate(0,-1.3340609073638916) translate(0,-1.3340609073638916) translate(0,-1.3340609073638916) translate(0,-1.3340609073638916) translate(0,-1.3340609073638916) translate(0,-1.3340609073638916) translate(0,-1.3340609073638916) translate(0,-1.3340609073638916) translate(0,-1.3340609073638916) translate(0,-1.3340609073638916) translate(0,-1.3340609073638916) translate(0,-1.3340609073638916) translate(0,-1.3340609073638916) translate(0,-1.3340609073638916) translate(0,-1.3340609073638916) translate(0,-1.3340609073638916) translate(0,-1.3340609073638916) translate(0,-1.3340609073638916) translate(162.39822387695312,476.259765625) translate(-68.17272186279297,0) translate(0,-69.4427261352539) ">
      <style stroke="null" type="text/css"/>
     </defs>
     <ellipse stroke="null" transform="matrix(0.9754466327925857,0,0,0.9633501718081757,49.53739012440577,-14.42701407275008) " fill="#f98bc2" stroke-width="null" stroke-opacity="null" fill-opacity="null" cx="139.488946" cy="280.773237" id="svg_69" rx="18.999615" ry="18.999615"/>
     <!-- Created with Method Draw - http://github.com/duopixel/Method-Draw/ -->
     <!-- Created with Method Draw - http://github.com/duopixel/Method-Draw/ -->
    </g>
   </g>
   <defs stroke="null" transform="translate(0,-6.695657253265381) translate(-2.6613457202911377,0) translate(-3.277880907058716,-46.394622802734375) translate(0,-0.2521446645259857) translate(0,-0.2521446645259857) translate(0,-0.2521446645259857) translate(0,-0.2521446645259857) translate(0,-0.2521446645259857) translate(0,-0.2521446645259857) translate(0,-0.2521446645259857) translate(0,-0.2521446645259857) translate(0,-0.2521446645259857) translate(0,-0.2521446645259857) translate(0,-0.2521446645259857) translate(0,-0.2521446645259857) translate(0,-0.2521446645259857) translate(0,-0.2521446645259857) translate(0,-0.2521446645259857) translate(0,-0.2521446645259857) translate(0,-0.2521446645259857) translate(0,-0.2521446645259857) translate(0,-0.2521446645259857) translate(0,-0.2521446645259857) translate(0,-0.2521446645259857) translate(0,-0.2521446645259857) translate(0,-0.2521446645259857) translate(0,-0.2521446645259857) translate(0,-0.2521446645259857) translate(0,-0.2521446645259857) translate(0,-0.2521446645259857) translate(0,-0.2521446645259857) translate(0,-0.2521446645259857) translate(0,-0.2521446645259857) translate(0,-0.2521446645259857) translate(0,-0.2521446645259857) translate(0,-0.2521446645259857) translate(0,-0.2521446645259857) translate(0,-0.2521446645259857) translate(0,-0.2521446645259857) translate(0,-0.2521446645259857) translate(0,-0.2521446645259857) translate(0,-0.2521446645259857) translate(0,-0.2521446645259857) translate(0,-0.2521446645259857) translate(0,-0.2521446645259857) translate(0,-0.2521446645259857) translate(0,-0.2521446645259857) translate(0,-0.2521446645259857) translate(0,-0.2521446645259857) translate(31.265939712524414,90.0156478881836) translate(-13.125046730041504,0) translate(0,-13.125046730041504) ">
    <style stroke="null" type="text/css"/>
   </defs>
   <path stroke="null" d="m68.143255,72.672802c-2.200867,0 -3.983648,-1.518293 -3.983648,-3.392645c0,-10.446661 -9.978841,-18.94507 -22.245321,-18.94507s-22.245321,8.498409 -22.245321,18.94507c0,1.874353 -1.782781,3.392645 -3.983648,3.392645s-3.983648,-1.518293 -3.983648,-3.392645c0,-14.188648 13.552291,-25.730361 30.212616,-25.730361s30.212616,11.541713 30.212616,25.730361c0,1.874353 -1.790669,3.392645 -3.983648,3.392645l0.000002,0z" fill="#d098ff" id="svg_66"/>
   <!-- Created with Method Draw - http://github.com/duopixel/Method-Draw/ -->
   <g stroke="null" id="svg_64">
    <!-- Created with Method Draw - http://github.com/duopixel/Method-Draw/ -->
    <defs stroke="null" transform="translate(0,0.24999967217445374) translate(0,-0.24999967217445374) translate(0,-0.24999967217445374) translate(0,-0.24999967217445374) translate(-0.24999968707561493,0.9999987483024597) translate(-0.24999968707561493,-1.2499984502792358) translate(1.7499977350234985,1.9999974966049194) translate(0,-6.695657253265381) translate(-2.6613457202911377,0) translate(-3.277880907058716,-46.394622802734375) translate(0,-0.2521446645259857) translate(0,-0.2521446645259857) translate(0,-0.2521446645259857) translate(0,-0.2521446645259857) translate(0,-0.2521446645259857) translate(0,-0.2521446645259857) translate(0,-0.2521446645259857) translate(0,-0.2521446645259857) translate(0,-0.2521446645259857) translate(0,-0.2521446645259857) translate(0,-0.2521446645259857) translate(0,-0.2521446645259857) translate(0,-0.2521446645259857) translate(0,-0.2521446645259857) translate(0,-0.2521446645259857) translate(0,-0.2521446645259857) translate(0,-0.2521446645259857) translate(0,-0.2521446645259857) translate(0,-0.2521446645259857) translate(0,-0.2521446645259857) translate(0,-0.2521446645259857) translate(0,-0.2521446645259857) translate(0,-0.2521446645259857) translate(0,-0.2521446645259857) translate(0,-0.2521446645259857) translate(0,-0.2521446645259857) translate(0,-0.2521446645259857) translate(0,-0.2521446645259857) translate(0,-0.2521446645259857) translate(0,-0.2521446645259857) translate(0,-0.2521446645259857) translate(0,-0.2521446645259857) translate(0,-0.2521446645259857) translate(0,-0.2521446645259857) translate(0,-0.2521446645259857) translate(0,-0.2521446645259857) translate(0,-0.2521446645259857) translate(0,-0.2521446645259857) translate(0,-0.2521446645259857) translate(0,-0.2521446645259857) translate(0,-0.2521446645259857) translate(0,-0.2521446645259857) translate(0,-0.2521446645259857) translate(0,-0.2521446645259857) translate(0,-0.2521446645259857) translate(0,-0.2521446645259857) translate(31.265939712524414,90.0156478881836) translate(-13.125046730041504,0) translate(0,-13.125046730041504) translate(60.449790954589844,48.68061828613281) scale(1.096138596534729,1.0827538967132568) translate(-60.449790954589844,-48.68061828613281) translate(56.744449615478516,46.8071403503418) scale(0.9561467170715332,0.9872618317604065) translate(-56.744449615478516,-46.8071403503418) translate(59.34701156616211,11.15907096862793) scale(1.0262084007263184,1) translate(-59.34701156616211,-11.15907096862793) ">
     <style stroke="null" type="text/css"/>
    </defs>
    <defs stroke="null" transform="translate(0,0.24999967217445374) translate(0,-0.24999967217445374) translate(0,-0.24999967217445374) translate(0,-0.24999967217445374) translate(-0.24999968707561493,0.9999987483024597) translate(-0.24999968707561493,-1.2499984502792358) translate(1.7499977350234985,1.9999974966049194) translate(0,-6.695657253265381) translate(-2.6613457202911377,0) translate(-3.277880907058716,-46.394622802734375) translate(0,-0.2521446645259857) translate(0,-0.2521446645259857) translate(0,-0.2521446645259857) translate(0,-0.2521446645259857) translate(0,-0.2521446645259857) translate(0,-0.2521446645259857) translate(0,-0.2521446645259857) translate(0,-0.2521446645259857) translate(0,-0.2521446645259857) translate(0,-0.2521446645259857) translate(0,-0.2521446645259857) translate(0,-0.2521446645259857) translate(0,-0.2521446645259857) translate(0,-0.2521446645259857) translate(0,-0.2521446645259857) translate(0,-0.2521446645259857) translate(0,-0.2521446645259857) translate(0,-0.2521446645259857) translate(0,-0.2521446645259857) translate(0,-0.2521446645259857) translate(0,-0.2521446645259857) translate(0,-0.2521446645259857) translate(0,-0.2521446645259857) translate(0,-0.2521446645259857) translate(0,-0.2521446645259857) translate(0,-0.2521446645259857) translate(0,-0.2521446645259857) translate(0,-0.2521446645259857) translate(0,-0.2521446645259857) translate(0,-0.2521446645259857) translate(0,-0.2521446645259857) translate(0,-0.2521446645259857) translate(0,-0.2521446645259857) translate(0,-0.2521446645259857) translate(0,-0.2521446645259857) translate(0,-0.2521446645259857) translate(0,-0.2521446645259857) translate(0,-0.2521446645259857) translate(0,-0.2521446645259857) translate(0,-0.2521446645259857) translate(0,-0.2521446645259857) translate(0,-0.2521446645259857) translate(0,-0.2521446645259857) translate(0,-0.2521446645259857) translate(0,-0.2521446645259857) translate(0,-0.2521446645259857) translate(31.265939712524414,90.0156478881836) translate(-13.125046730041504,0) translate(0,-13.125046730041504) translate(60.449790954589844,48.68061828613281) scale(1.096138596534729,1.0827538967132568) translate(-60.449790954589844,-48.68061828613281) translate(56.744449615478516,46.8071403503418) scale(0.9561467170715332,0.9872618317604065) translate(-56.744449615478516,-46.8071403503418) translate(59.34701156616211,11.15907096862793) scale(1.0262084007263184,1) translate(-59.34701156616211,-11.15907096862793) ">
     <style stroke="null" type="text/css"/>
    </defs>
    <defs stroke="null" transform="translate(0,0.24999967217445374) translate(0,-0.24999967217445374) translate(0,-0.24999967217445374) translate(0,-0.24999967217445374) translate(-0.24999968707561493,0.9999987483024597) translate(-0.24999968707561493,-1.2499984502792358) translate(1.7499977350234985,1.9999974966049194) translate(0,-6.695657253265381) translate(-2.6613457202911377,0) translate(-3.277880907058716,-46.394622802734375) translate(0,-0.2521446645259857) translate(0,-0.2521446645259857) translate(0,-0.2521446645259857) translate(0,-0.2521446645259857) translate(0,-0.2521446645259857) translate(0,-0.2521446645259857) translate(0,-0.2521446645259857) translate(0,-0.2521446645259857) translate(0,-0.2521446645259857) translate(0,-0.2521446645259857) translate(0,-0.2521446645259857) translate(0,-0.2521446645259857) translate(0,-0.2521446645259857) translate(0,-0.2521446645259857) translate(0,-0.2521446645259857) translate(0,-0.2521446645259857) translate(0,-0.2521446645259857) translate(0,-0.2521446645259857) translate(0,-0.2521446645259857) translate(0,-0.2521446645259857) translate(0,-0.2521446645259857) translate(0,-0.2521446645259857) translate(0,-0.2521446645259857) translate(0,-0.2521446645259857) translate(0,-0.2521446645259857) translate(0,-0.2521446645259857) translate(0,-0.2521446645259857) translate(0,-0.2521446645259857) translate(0,-0.2521446645259857) translate(0,-0.2521446645259857) translate(0,-0.2521446645259857) translate(0,-0.2521446645259857) translate(0,-0.2521446645259857) translate(0,-0.2521446645259857) translate(0,-0.2521446645259857) translate(0,-0.2521446645259857) translate(0,-0.2521446645259857) translate(0,-0.2521446645259857) translate(0,-0.2521446645259857) translate(0,-0.2521446645259857) translate(0,-0.2521446645259857) translate(0,-0.2521446645259857) translate(0,-0.2521446645259857) translate(0,-0.2521446645259857) translate(0,-0.2521446645259857) translate(0,-0.2521446645259857) translate(31.265939712524414,90.0156478881836) translate(-13.125046730041504,0) translate(0,-13.125046730041504) translate(60.449790954589844,48.68061828613281) scale(1.096138596534729,1.0827538967132568) translate(-60.449790954589844,-48.68061828613281) translate(56.744449615478516,46.8071403503418) scale(0.9561467170715332,0.9872618317604065) translate(-56.744449615478516,-46.8071403503418) translate(59.34701156616211,11.15907096862793) scale(1.0262084007263184,1) translate(-59.34701156616211,-11.15907096862793) ">
     <style stroke="null" type="text/css"/>
    </defs>
    <path stroke="null" id="svg_65" fill="#d4237a" d="m42.12192,49.930615c-10.767825,0 -19.577864,-8.719198 -19.577864,-19.375998s8.810039,-19.375998 19.577864,-19.375998s19.577864,8.719198 19.577864,19.375998s-8.810039,19.375998 -19.577864,19.375998zm0,-32.696995c-7.464061,0 -13.459782,5.9339 -13.459782,13.320997s5.995722,13.320997 13.459782,13.320997s13.459782,-5.9339 13.459782,-13.320997s-5.995722,-13.320997 -13.459782,-13.320997z"/>
   </g>
  </g>
 </g>
</svg>