<svg width="60" height="60" xmlns="http://www.w3.org/2000/svg">
 <!-- Created with Method Draw - http://github.com/duopixel/Method-Draw/ -->

 <g>
  <title>background</title>
  <rect fill="none" id="canvas_background" height="62" width="62" y="-1" x="-1"/>
  <g display="none" overflow="visible" y="0" x="0" height="100%" width="100%" id="canvasGrid">
   <rect fill="url(#gridpattern)" stroke-width="0" y="0" x="0" height="100%" width="100%"/>
  </g>
 </g>
 <g>
  <title>Layer 1</title>
  <defs>
   <style type="text/css"/>
  </defs>
  <g stroke="null" id="svg_5">
   <path fill="#707070" id="svg_4" d="m56.45811,59.999951l-0.0555,-0.456532c-1.53951,-12.61668 -13.39721,-22.882524 -26.43369,-22.882524c-13.03648,0 -24.89418,10.26474 -26.43259,22.882524l-0.0555,0.456532l-3.48083,0l0.06216,-0.575337c1.2043,-11.124994 9.0606,-21.152124 19.54972,-24.948463l0.31967,-0.116606l-0.28637,-0.182611c-5.36222,-3.417911 -8.56334,-9.111866 -8.56334,-15.233754c0,-10.090926 8.8264,-18.94318 18.88708,-18.94318c10.06178,0 18.88708,8.852255 18.88708,18.94539c0,6.120773 -3.20113,11.814738 -8.56335,15.233744l-0.28636,0.182611l0.31966,0.116616c10.48912,3.797433 18.34542,13.823458 19.54973,24.948453l0.06216,0.573138l-3.47973,0zm-26.48919,-56.505029c-7.77527,0 -15.40625,7.653178 -15.40625,15.449363c0,8.139404 8.13379,14.221687 15.40625,14.221687c7.27246,0 15.40624,-6.081178 15.40624,-14.221687c0,-7.796184 -7.63097,-15.449363 -15.40624,-15.449363z"/>
  </g>
 </g>
</svg>